<svg width="32" height="32" fill="rgb(220,38,38)" xmlns="http://www.w3.org/2000/svg" viewBox="0 0 24 24">
    <path d="M20 20C18.61 20 17.22 19.53 16 18.67C13.56 20.38 10.44 20.38 8 18.67C6.78 19.53 5.39 20 4 20H2V22H4C5.37 22 6.74 21.65 8 21C10.5 22.3 13.5 22.3 16 21C17.26 21.65 18.62 22 20 22H22V20H20M20.78 19H20C18.82 19 17.64 18.6 16.58 17.85L16 17.45L15.42 17.85C14.39 18.57 13.21 18.95 12 18.95C10.77 18.95 9.59 18.57 8.56 17.85L8 17.45L7.43 17.85C6.36 18.6 5.18 19 4 19H3.22C3.75 17.54 5.58 15 12 15C14 15 15 15.24 15 15.24C15.68 13.87 16.83 10.77 16 6.82L17.06 7.53C17.39 8.96 18 11.75 16.8 15.65C19.43 16.5 20.42 18 20.78 19M22 7.59C21.21 6.5 20 5.71 18.58 5.53C18.7 5.67 18.81 5.83 18.92 6C20.12 7.91 19.87 10.32 18.47 11.95C19.06 10.5 19 8.79 18.08 7.36C18 7.28 17.96 7.2 17.9 7.11C17.5 6.53 16.96 6.06 16.32 5.76C16.5 5.5 16.68 5.25 16.85 5C17.5 4.11 18.5 3.5 20 3.5C21.5 3.5 22.5 4.11 23.15 5C23.32 5.25 23.5 5.5 23.68 5.76C23.04 6.06 22.5 6.53 22.1 7.11C22.04 7.2 22 7.28 21.92 7.36C21 8.79 20.94 10.5 21.53 11.95C20.13 10.32 19.88 7.91 21.08 6C21.19 5.83 21.3 5.67 21.42 5.53C20 5.71 18.79 6.5 18 7.59C18.79 8.68 20 9.47 21.42 9.65C21.3 9.83 21.19 10 21.08 10.18C19.88 11.29 20.13 13.68 21.53 15.31C20.94 16.76 21 18.47 21.92 19.9C22 19.98 22.04 20.06 22.1 20.15C22.5 20.73 23.04 21.2 23.68 21.5C23.5 21.75 23.32 22 23.15 22.25C22.5 23.14 21.5 23.75 20 23.75C18.5 23.75 17.5 23.14 16.85 22.25C16.68 22 16.5 21.75 16.32 21.5C16.96 21.2 17.5 20.73 17.9 20.15C17.96 20.06 18 19.98 18.08 19.9C19.43 18.47 20 16.76 19.42 15.31C20.13 13.68 19.88 11.29 18.58 10.18C18.7 10 18.81 9.83 18.92 9.65C20.34 9.47 21.55 8.68 22 7.59M12 13C10.9 13 10 12.1 10 11C10 9.9 10.9 9 12 9C13.1 9 14 9.9 14 11C14 12.1 13.1 13 12 13M12 7C9.79 7 8 8.79 8 11C8 12.5 9.08 14.37 11.25 16.54L12 17.29L12.75 16.54C14.92 14.37 16 12.5 16 11C16 8.79 14.21 7 12 7Z" />
</svg>
